# xmcd CD database file
# Copyright (C) 1993-1998 Ti Kan
# 
# Track frame offsets:
#     150
#     13585
#     28953
#     44873
#     60518
#     67713
#     82573
#     90685
#     106870
#     117600
#     130130
#     168303
#     177440
#     190125
#     205088
#     220770
#     236458
#     251753
# 
# Disc length: 3565 seconds
# 
# Revision: 1
# Processed by: cddbd v1.4b41PL1 Copyright (c) Steve Scherf et al.
# Submitted via: DiscPlay 4.0.4
# 
DISCID=f20deb12
DTITLE=Billie Holiday - Fine and Mellow
DYEAR=1900
DGENRE=
TTITLE0=My Man
TTITLE1=Lover Man
TTITLE2=I Cover The Waterfront
TTITLE3=Don't Explain
TTITLE4=Them There Eyes
TTITLE5=They Can't Take That Away From Me
TTITLE6=Swing Brother, Swing
TTITLE7=Do Nothin' Till You Hear From Me
TTITLE8=Lover Come Back To Me
TTITLE9=The Same Old Story
TTITLE10=Fine And Mellow
TTITLE11=What A Little Moonlight Can Do
TTITLE12=Fooling Myself
TTITLE13=Easy To Remember
TTITLE14=You've Changed
TTITLE15=Ghost Of A Chance
TTITLE16=Willow Weep For Me
TTITLE17=Stormy Weather
EXTD=
EXTT0=
EXTT1=
EXTT2=
EXTT3=
EXTT4=
EXTT5=
EXTT6=
EXTT7=
EXTT8=
EXTT9=
EXTT10=
EXTT11=
EXTT12=
EXTT13=
EXTT14=
EXTT15=
EXTT16=
EXTT17=
PLAYORDER=
